<svg height="512" viewBox="0 0 60 60" width="512" xmlns="http://www.w3.org/2000/svg"><g id="Page-1" fill="none" fill-rule="evenodd"><g id="049---Group-Of-Virus'" fill="rgb(0,0,0)" fill-rule="nonzero"><path id="Shape" d="m44 1v2.04c-.33-.03-.66-.04-1-.04s-.67.01-1 .04v-2.04c0-.55228475.4477153-1 1-1s1 .44771525 1 1z"/><path id="Shape" d="m36.89 4.4c-.6009062.29928845-1.1820886.63664146-1.74 1.01l-1.02-1.77c-.1786328-.31082106-.1778752-.69333103.0019873-1.0034421s.5115047-.50070999.87-.5.6893799.19262104.8680127.5034421z"/><path id="Shape" d="m31.41 9.15c-.3733585.55791144-.7107116 1.1390938-1.01 1.74l-1.76-1.02c-.3108211-.17863279-.5027321-.50951737-.5034421-.8680127-.00071-.35849534.1898889-.69013746.5-.87s.692621-.18062009 1.0034421-.0019873z"/><path id="Shape" d="m29 17c0 .34.01.67.04 1h-2.04c-.5522847 0-1-.4477153-1-1s.4477153-1 1-1h2.04c-.03.33-.04.66-.04 1z"/><path id="Shape" d="m31.41 24.85-1.77 1.02c-.4779792.2713883-1.0853915.1061364-1.36-.37-.2757495-.4781528-.1151892-1.0891741.36-1.37l1.76-1.02c.2992884.6009062.6366415 1.1820886 1.01 1.74z"/><path id="Shape" d="m36.89 29.6-1.02 1.76c-.1322836.2311929-.3519032.3995478-.6095202.4672427-.2576169.067695-.5316297.0290537-.7604798-.1072427-.4761364-.2746085-.6413883-.8820208-.37-1.36l1.02-1.77c.5579114.3733585 1.1390938.7107116 1.74 1.01z"/><path id="Shape" d="m44 30.96v2.04c0 .5522847-.4477153 1-1 1s-1-.4477153-1-1v-2.04c.33.03.66.04 1 .04s.67-.01 1-.04z"/><path id="Shape" d="m51.5 31.72c-.2288501.1362964-.5028629.1749377-.7604798.1072427-.257617-.0676949-.4772366-.2360498-.6095202-.4672427l-1.02-1.76c.6009062-.2992884 1.1820886-.6366415 1.74-1.01l1.02 1.77c.2713883.4779792.1061364 1.0853915-.37 1.36z"/><path id="Shape" d="m57.72 25.5c-.2746085.4761364-.8820208.6413883-1.36.37l-1.77-1.02c.3733585-.5579114.7107116-1.1390938 1.01-1.74l1.76 1.02c.4751892.2808259.6357495.8918472.36 1.37z"/><path id="Shape" d="m60 17c0 .5522847-.4477153 1-1 1h-2.04c.03-.33.04-.66.04-1s-.01-.67-.04-1h2.04c.5522847 0 1 .4477153 1 1z"/><path id="Shape" d="m57.36 9.87-1.76 1.02c-.2932455-.6041407-.6308356-1.1857317-1.01-1.74l1.77-1.02c.4804877-.27614237 1.0938576-.11048773 1.37.37s.1104877 1.09385763-.37 1.37z"/><path id="Shape" d="m51.87 3.64-1.02 1.77c-.5579114-.37335854-1.1390938-.71071155-1.74-1.01l1.02-1.76c.1786328-.31082106.5095174-.50273211.8680127-.5034421s.6901375.18988893.87.5.1806201.69262104.0019873 1.0034421z"/><circle id="Oval" cx="47" cy="20" r="2"/><circle id="Oval" cx="39" cy="14" r="1"/><path id="Shape" d="m43 5c-6.627417 0-12 5.372583-12 12s5.372583 12 12 12 12-5.372583 12-12-5.372583-12-12-12zm-4 17c-.5522847 0-1-.4477153-1-1s.4477153-1 1-1 1 .4477153 1 1-.4477153 1-1 1zm0-5c-1.6568542 0-3-1.3431458-3-3s1.3431458-3 3-3 3 1.3431458 3 3-1.3431458 3-3 3zm6-7c.5522847 0 1 .4477153 1 1s-.4477153 1-1 1-1-.4477153-1-1 .4477153-1 1-1zm2 14c-2.209139 0-4-1.790861-4-4s1.790861-4 4-4 4 1.790861 4 4-1.790861 4-4 4z"/><path id="Shape" d="m18 21v2.04c-.33-.03-.66-.04-1-.04s-.67.01-1 .04v-2.04c0-.5522847.4477153-1 1-1s1 .4477153 1 1z"/><path id="Shape" d="m10.89 24.4c-.6009062.2992884-1.18208856.6366415-1.74 1.01l-1.02-1.77c-.27614237-.4804877-.11048773-1.0938576.37-1.37s1.09385763-.1104877 1.37.37z"/><path id="Shape" d="m5.41 29.15c-.37335854.5579114-.71071155 1.1390938-1.01 1.74l-1.76-1.02c-.48048773-.2761424-.64614237-.8895123-.37-1.37s.88951227-.6461424 1.37-.37z"/><path id="Shape" d="m3 37c0 .34.01.67.04 1h-2.04c-.55228475 0-1-.4477153-1-1s.44771525-1 1-1h2.04c-.03.33-.04.66-.04 1z"/><path id="Shape" d="m5.41 44.85-1.77 1.02c-.47797918.2713883-1.08539152.1061364-1.36-.37-.27574949-.4781528-.11518916-1.0891741.36-1.37l1.76-1.02c.29928845.6009062.63664146 1.1820886 1.01 1.74z"/><path id="Shape" d="m10.89 49.6-1.02 1.76c-.13228356.2311929-.35190323.3995478-.60952016.4672427-.25761693.067695-.53162974.0290537-.76047984-.1072427-.47613642-.2746085-.6413883-.8820208-.37-1.36l1.02-1.77c.55791144.3733585 1.1390938.7107116 1.74 1.01z"/><path id="Shape" d="m18 50.96v2.04c0 .5522847-.4477153 1-1 1s-1-.4477153-1-1v-2.04c.33.03.66.04 1 .04s.67-.01 1-.04z"/><path id="Shape" d="m25.5 51.72c-.2288501.1362964-.5028629.1749377-.7604798.1072427-.257617-.0676949-.4772366-.2360498-.6095202-.4672427l-1.02-1.76c.6009062-.2992884 1.1820886-.6366415 1.74-1.01l1.02 1.77c.2713883.4779792.1061364 1.0853915-.37 1.36z"/><path id="Shape" d="m31.72 45.5c-.2746085.4761364-.8820208.6413883-1.36.37l-1.77-1.02c.3733585-.5579114.7107116-1.1390938 1.01-1.74l1.76 1.02c.4751892.2808259.6357495.8918472.36 1.37z"/><path id="Shape" d="m34 37c0 .5522847-.4477153 1-1 1h-2.04c.03-.33.04-.66.04-1s-.01-.67-.04-1h2.04c.5522847 0 1 .4477153 1 1z"/><path id="Shape" d="m31.36 29.87-1.76 1.02c-.2932455-.6041407-.6308356-1.1857317-1.01-1.74l1.77-1.02c.4804877-.2761424 1.0938576-.1104877 1.37.37s.1104877 1.0938576-.37 1.37z"/><path id="Shape" d="m25.87 23.64-1.02 1.77c-.5579114-.3733585-1.1390938-.7107116-1.74-1.01l1.02-1.76c.2761424-.4804877.8895123-.6461423 1.37-.37.4804877.2761424.6461424.8895123.37 1.37z"/><circle id="Oval" cx="13" cy="34" r="1"/><circle id="Oval" cx="21" cy="40" r="2"/><path id="Shape" d="m17 25c-6.627417 0-12 5.372583-12 12s5.372583 12 12 12 12-5.372583 12-12-5.372583-12-12-12zm-4 17c-.5522847 0-1-.4477153-1-1s.4477153-1 1-1 1 .4477153 1 1-.4477153 1-1 1zm0-5c-1.6568542 0-3-1.3431458-3-3s1.3431458-3 3-3 3 1.3431458 3 3-1.3431458 3-3 3zm6-7c.5522847 0 1 .4477153 1 1s-.4477153 1-1 1-1-.4477153-1-1 .4477153-1 1-1zm2 14c-2.209139 0-4-1.790861-4-4s1.790861-4 4-4 4 1.790861 4 4-1.790861 4-4 4z"/><path id="Shape" d="m48 35v1.05c-.33-.03-.66-.05-1-.05s-.67.02-1 .05v-1.05c0-.5522847.4477153-1 1-1s1 .4477153 1 1z"/><path id="Shape" d="m42.39 37.01c-.6124782.2773175-1.1954277.6156962-1.74 1.01l-.52-.91c-.2761424-.4804877-.1104877-1.0938576.37-1.37.4804877-.2761423 1.0938576-.1104877 1.37.37z"/><path id="Shape" d="m38.02 40.65c-.3943038.5445723-.7326825 1.1275218-1.01 1.74l-.9-.52c-.4804877-.2761424-.6461423-.8895123-.37-1.37.2761424-.4804877.8895123-.6461424 1.37-.37z"/><path id="Shape" d="m36 47c0 .34.02.67.05 1h-1.05c-.5522847 0-1-.4477153-1-1s.4477153-1 1-1h1.05c-.03.33-.05.66-.05 1z"/><path id="Shape" d="m38.02 53.35-.91.52c-.4804877.2761424-1.0938576.1104877-1.37-.37-.2761423-.4804877-.1104877-1.0938576.37-1.37l.9-.52c.2773175.6124782.6156962 1.1954277 1.01 1.74z"/><path id="Shape" d="m42.39 56.99-.52.9c-.1786328.3108211-.5095174.5027321-.8680127.5034421s-.6901375-.1898889-.87-.5-.1806201-.692621-.0019873-1.0034421l.52-.91c.5445723.3943038 1.1275218.7326825 1.74 1.01z"/><path id="Shape" d="m48 57.95v1.05c0 .5522847-.4477153 1-1 1s-1-.4477153-1-1v-1.05c.33.03.66.05 1 .05s.67-.02 1-.05z"/><path id="Shape" d="m53.5 58.26c-.4811967.2705714-1.0904405.1060311-1.37-.37l-.52-.9c.6124782-.2773175 1.1954277-.6156962 1.74-1.01l.52.91c.2723004.4809795.1074157 1.0914986-.37 1.37z"/><path id="Shape" d="m58.26 53.5c-.2795595.4760311-.8888033.6405714-1.37.37l-.91-.52c.3943038-.5445723.7326825-1.1275218 1.01-1.74l.9.52c.2314397.1319512.4006596.350799.4701217.6079963.069462.2571974.0334233.53148-.1001217.7620037z"/><path id="Shape" d="m60 47c0 .5522847-.4477153 1-1 1h-1.05c.03-.33.05-.66.05-1s-.02-.67-.05-1h1.05c.5522847 0 1 .4477153 1 1z"/><path id="Shape" d="m57.89 41.87-.9.52c-.2773175-.6124782-.6156962-1.1954277-1.01-1.74l.91-.52c.4804877-.2761424 1.0938576-.1104877 1.37.37s.1104877 1.0938576-.37 1.37z"/><path id="Shape" d="m53.87 37.11-.52.91c-.5445723-.3943038-1.1275218-.7326825-1.74-1.01l.52-.9c.1786328-.3108211.5095174-.5027321.8680127-.5034421.3584954-.00071.6901375.1898889.87.5.1798626.3101111.1806201.692621.0019873 1.0034421z"/><path id="Shape" d="m47 38c-3.6401602 0-6.9218868 2.1927796-8.3149158 5.5558491s-.6230272 7.23413 1.9509548 9.8081119c2.5739819 2.573982 6.4450424 3.3439838 9.8081119 1.9509548s5.5558491-4.6747556 5.5558491-8.3149158c0-4.9705627-4.0294373-9-9-9zm-5 6c0-.5522847.4477153-1 1-1s1 .4477153 1 1-.4477153 1-1 1-1-.4477153-1-1zm2 7c-.5522847 0-1-.4477153-1-1s.4477153-1 1-1 1 .4477153 1 1-.4477153 1-1 1zm4-7c-.5522847 0-1-.4477153-1-1s.4477153-1 1-1 1 .4477153 1 1-.4477153 1-1 1zm3 6c-.5522847 0-1-.4477153-1-1s.4477153-1 1-1 1 .4477153 1 1-.4477153 1-1 1z"/></g></g></svg>